<svg xmlns="http://www.w3.org/2000/svg" width="20" height="20" fill="none" viewBox="0 0 406 405"><path fill="#fefefe" d="M202.056 400.26c109.435 0 198.149-88.714 198.149-198.148 0-109.435-88.714-198.149-198.149-198.149C92.622 3.963 3.907 92.677 3.907 202.112c0 109.434 88.715 198.148 198.149 198.148"/><path fill="#000" fill-rule="evenodd" d="M202.891 0C314.48 0 405.002 90.453 405.002 202.112c0 111.589-90.453 202.111-202.111 202.111C91.301 404.223.779 313.77.779 202.112.779 90.522 91.232 0 202.89 0m-2.017 10.429c-.973 0-1.877 0-2.85.07C93.526 12.027 9.191 97.266 9.191 202.111c0 104.984 84.544 190.292 189.18 191.613-51.727-1.321-93.373-43.732-93.373-95.807 0-52.909 42.967-95.806 95.807-95.806 52.909 0 95.806-42.967 95.806-95.807 0-52.91-42.967-95.807-95.806-95.807z" clip-rule="evenodd"/><path fill="#000" fill-rule="evenodd" d="M170.631 125.147V53.743c0-3.128 1.112-5.84 3.406-8.065 2.295-2.294 5.006-3.406 8.135-3.406h37.266c3.059 0 5.77 1.112 7.995 3.407s3.407 5.005 3.407 8.064v71.404c0 3.198-1.113 5.909-3.407 8.134-2.225 2.225-4.936 3.407-8.134 3.407h-37.058c-3.198 0-5.979-1.113-8.204-3.407q-3.337-3.337-3.337-8.134zm48.32-.418v-70.43h-36.362v70.43z" clip-rule="evenodd"/><path fill="#fff" fill-rule="evenodd" d="M184.188 341.094h18.355v-70.43h-18.077c-1.668 0-3.059-.556-4.241-1.738s-1.738-2.572-1.738-4.241.556-3.059 1.738-4.241 2.573-1.738 4.241-1.738h29.966v82.388h11.958v-24.89c0-1.599.556-2.99 1.738-4.172s2.573-1.808 4.241-1.808c1.669 0 3.06.557 4.242 1.739s1.738 2.572 1.738 4.241v30.869c0 1.669-.556 3.059-1.738 4.241s-2.573 1.738-4.242 1.738h-48.181c-1.669 0-3.059-.625-4.241-1.807s-1.738-2.642-1.738-4.311c0-1.599.556-2.99 1.738-4.102s2.572-1.738 4.241-1.738" clip-rule="evenodd"/></svg>